<svg width="111" height="45" viewBox="0 0 111 45" fill="none" xmlns="http://www.w3.org/2000/svg">
<rect width="110.714" height="45" fill="#2C3A31"/>
<path d="M62.5889 12.3135H63.2139L78.7496 36.0635H104.107V7.4028H47.5889V6.42065H104.732V39.5457H76.8746L62.5889 12.3135Z" fill="#345D44"/>
<path d="M61.5176 12.3135H60.8033L47.9461 36.0635H6.78543V7.4028H8.21401V6.42065H6.07115V39.5457H49.8211L61.5176 12.3135Z" fill="#345D44"/>
<path d="M9.64258 10.885H15.3569V30.3493H24.8211V34.9922H9.64258V10.885Z" fill="white"/>
<path d="M27.8569 10.885H33.3926H44.8212V15.6172H33.3926V20.5279H42.6784V24.9922H33.3926V30.26H44.8212V34.9922H27.8569V10.885Z" fill="white"/>
<rect x="61.25" y="14.8135" width="1.78571" height="3.75" fill="#345D44"/>
<rect x="61.25" y="25.1707" width="1.78571" height="13.2143" fill="#345D44"/>
<mask id="path-7-outside-1_1035_30" maskUnits="userSpaceOnUse" x="8.64258" y="4.53564" width="37" height="4" fill="black">
<rect fill="white" x="8.64258" y="4.53564" width="37" height="4"/>
<path d="M9.64258 6.71732V6.65967C9.64258 6.46369 9.65219 6.29941 9.6714 6.16683C9.69061 6.03329 9.72376 5.92473 9.77083 5.84115C9.81791 5.75757 9.88179 5.69368 9.96249 5.64949C10.0442 5.6053 10.1465 5.57551 10.2694 5.56014C10.3924 5.54381 10.5404 5.53564 10.7133 5.53564H11.294C11.4919 5.53564 11.6586 5.54525 11.7941 5.56447C11.9305 5.58272 12.04 5.61971 12.1226 5.67543C12.2062 5.73019 12.2668 5.81137 12.3042 5.91897C12.3417 6.0256 12.3604 6.16731 12.3604 6.34408H12.0837C12.0837 6.20478 12.0712 6.0967 12.0463 6.01984C12.0213 5.94202 11.979 5.88582 11.9195 5.85124C11.8609 5.81665 11.7806 5.79552 11.6788 5.78783C11.577 5.77919 11.4487 5.77486 11.294 5.77486H10.7133C10.5759 5.77486 10.4601 5.77919 10.366 5.78783C10.2718 5.79552 10.195 5.81425 10.1354 5.84403C10.0768 5.87285 10.0317 5.91897 9.99996 5.98238C9.96922 6.04578 9.94808 6.13224 9.93656 6.24177C9.92502 6.35129 9.91926 6.49059 9.91926 6.65967V6.71732C9.91926 6.88064 9.92502 7.0161 9.93656 7.1237C9.94808 7.23129 9.96922 7.31728 9.99996 7.38165C10.0317 7.44601 10.0768 7.49405 10.1354 7.52575C10.195 7.55745 10.2718 7.57811 10.366 7.58772C10.4601 7.59732 10.5759 7.60213 10.7133 7.60213H11.294C11.4487 7.60213 11.577 7.59876 11.6788 7.59204C11.7806 7.58532 11.8609 7.56562 11.9195 7.53296C11.979 7.50029 12.0213 7.44601 12.0463 7.37011C12.0712 7.29326 12.0837 7.18566 12.0837 7.04732H12.3604C12.3604 7.22409 12.3417 7.36531 12.3042 7.47099C12.2668 7.57667 12.2062 7.65641 12.1226 7.71021C12.04 7.76304 11.9305 7.79811 11.7941 7.8154C11.6586 7.8327 11.4919 7.84134 11.294 7.84134H10.7133C10.4971 7.84134 10.3194 7.82645 10.1801 7.79667C10.0408 7.76785 9.93175 7.71405 9.85297 7.63527C9.77516 7.55649 9.7204 7.44313 9.68869 7.29518C9.65795 7.14723 9.64258 6.95461 9.64258 6.71732ZM14.6912 7.84134C14.475 7.84134 14.2973 7.82645 14.158 7.79667C14.0187 7.76785 13.9096 7.71405 13.8309 7.63527C13.7531 7.55649 13.6983 7.44313 13.6666 7.29518C13.6359 7.14723 13.6205 6.95461 13.6205 6.71732V6.65967C13.6205 6.46369 13.6301 6.29941 13.6493 6.16683C13.6685 6.03329 13.7016 5.92473 13.7487 5.84115C13.7958 5.75757 13.8597 5.69368 13.9404 5.64949C14.0221 5.6053 14.1244 5.57551 14.2474 5.56014C14.3703 5.54381 14.5183 5.53564 14.6912 5.53564H15.2719C15.4449 5.53564 15.5928 5.54381 15.7158 5.56014C15.8388 5.57551 15.9406 5.6053 16.0213 5.64949C16.1029 5.69368 16.1673 5.75757 16.2144 5.84115C16.2615 5.92473 16.2946 6.03329 16.3138 6.16683C16.333 6.29941 16.3426 6.46369 16.3426 6.65967V6.71732C16.3426 6.95461 16.3268 7.14723 16.2951 7.29518C16.2644 7.44313 16.2096 7.55649 16.1308 7.63527C16.053 7.71405 15.9444 7.76785 15.8051 7.79667C15.6658 7.82645 15.4881 7.84134 15.2719 7.84134H14.6912ZM14.6912 7.60213H15.2719C15.4093 7.60213 15.5251 7.59732 15.6192 7.58772C15.7134 7.57811 15.7898 7.55745 15.8484 7.52575C15.9079 7.49405 15.9531 7.44601 15.9838 7.38165C16.0155 7.31728 16.0371 7.23129 16.0487 7.1237C16.0602 7.0161 16.066 6.88064 16.066 6.71732V6.65967C16.066 6.49059 16.0602 6.35129 16.0487 6.24177C16.0371 6.13224 16.0155 6.04578 15.9838 5.98238C15.9531 5.91897 15.9079 5.87285 15.8484 5.84403C15.7898 5.81425 15.7134 5.79552 15.6192 5.78783C15.5251 5.77919 15.4093 5.77486 15.2719 5.77486H14.6912C14.5538 5.77486 14.438 5.77919 14.3439 5.78783C14.2498 5.79552 14.1729 5.81425 14.1133 5.84403C14.0547 5.87285 14.0096 5.91897 13.9779 5.98238C13.9471 6.04578 13.926 6.13224 13.9144 6.24177C13.9029 6.35129 13.8972 6.49059 13.8972 6.65967V6.71732C13.8972 6.88064 13.9029 7.0161 13.9144 7.1237C13.926 7.23129 13.9471 7.31728 13.9779 7.38165C14.0096 7.44601 14.0547 7.49405 14.1133 7.52575C14.1729 7.55745 14.2498 7.57811 14.3439 7.58772C14.438 7.59732 14.5538 7.60213 14.6912 7.60213ZM17.6906 7.79523V5.58176H17.9788L20.2024 7.4537H20.2053V5.58176H20.482V7.79523H20.1937L17.9702 5.90744H17.9673V7.79523H17.6906ZM24.2783 7.1554C24.2783 7.0699 24.2716 7.00264 24.2581 6.95365C24.2447 6.90465 24.2144 6.86863 24.1673 6.84557C24.1203 6.82155 24.0472 6.80618 23.9483 6.79945C23.8493 6.79177 23.7139 6.78649 23.5419 6.7836L22.7407 6.77208C22.5428 6.76919 22.3838 6.75719 22.2637 6.73605C22.1436 6.71491 22.0528 6.68177 21.9913 6.63662C21.9298 6.5905 21.8885 6.52902 21.8674 6.45216C21.8472 6.3753 21.8371 6.27923 21.8371 6.16395C21.8371 6.0381 21.8511 5.93434 21.8789 5.85268C21.9078 5.77102 21.9591 5.70713 22.0331 5.66102C22.108 5.6149 22.2137 5.58272 22.3501 5.56447C22.4865 5.54525 22.6628 5.53564 22.879 5.53564H23.4958C23.6918 5.53564 23.8551 5.54189 23.9857 5.55438C24.1164 5.56687 24.2202 5.59569 24.297 5.64084C24.3739 5.686 24.4286 5.75613 24.4613 5.85124C24.4949 5.94635 24.5117 6.077 24.5117 6.2432H24.2351C24.2351 6.11447 24.2226 6.01744 24.1976 5.95211C24.1736 5.88582 24.1332 5.84067 24.0765 5.81665C24.0208 5.79263 23.9454 5.77967 23.8503 5.77774C23.7552 5.77582 23.637 5.77486 23.4958 5.77486H22.8934C22.7215 5.77486 22.5836 5.77822 22.4798 5.78495C22.377 5.79167 22.2992 5.80704 22.2464 5.83106C22.1935 5.85508 22.158 5.89351 22.1397 5.94635C22.1224 5.99919 22.1138 6.07172 22.1138 6.16395C22.1138 6.24177 22.12 6.30421 22.1325 6.35129C22.145 6.39836 22.1729 6.43439 22.2161 6.45937C22.2603 6.48338 22.328 6.5002 22.4193 6.5098C22.5106 6.51845 22.635 6.52373 22.7926 6.52565L23.6514 6.53718C23.8532 6.54006 24.0141 6.55207 24.1342 6.57321C24.2552 6.59338 24.3455 6.62653 24.4051 6.67264C24.4656 6.71876 24.5055 6.7812 24.5247 6.85998C24.5449 6.9378 24.555 7.03627 24.555 7.1554C24.555 7.28509 24.5425 7.39413 24.5175 7.48252C24.4935 7.56994 24.4464 7.64008 24.3763 7.69291C24.3062 7.74575 24.2048 7.7837 24.0722 7.80676C23.9397 7.82981 23.7653 7.84134 23.5491 7.84134H22.8747C22.6777 7.84134 22.5125 7.8327 22.379 7.8154C22.2454 7.79811 22.1388 7.76353 22.0591 7.71165C21.9803 7.65881 21.9236 7.58051 21.889 7.47676C21.8544 7.373 21.8371 7.23466 21.8371 7.06173H22.1138C22.1138 7.19719 22.1248 7.30191 22.1469 7.37588C22.169 7.44985 22.2075 7.50317 22.2623 7.53584C22.3179 7.56754 22.3953 7.58676 22.4942 7.59348C22.5942 7.59924 22.721 7.60213 22.8747 7.60213H23.5347C23.7067 7.60213 23.8426 7.59684 23.9425 7.58628C24.0424 7.57475 24.1164 7.55361 24.1644 7.52287C24.2125 7.49117 24.2432 7.44601 24.2567 7.38741C24.2711 7.32881 24.2783 7.25147 24.2783 7.1554ZM26.8843 7.84134C26.6682 7.84134 26.4904 7.82645 26.3511 7.79667C26.2118 7.76785 26.1028 7.71405 26.024 7.63527C25.9462 7.55649 25.8914 7.44313 25.8597 7.29518C25.829 7.14723 25.8136 6.95461 25.8136 6.71732V5.58176H26.0903V6.71732C26.0903 6.88064 26.0961 7.0161 26.1076 7.1237C26.1191 7.23129 26.1407 7.31728 26.1724 7.38165C26.2041 7.44601 26.2493 7.49405 26.3079 7.52575C26.3674 7.55745 26.4443 7.57811 26.5384 7.58772C26.6326 7.59732 26.7479 7.60213 26.8843 7.60213H27.406C27.5434 7.60213 27.6586 7.59732 27.7518 7.58772C27.846 7.57811 27.9224 7.55745 27.9809 7.52575C28.0405 7.49405 28.0861 7.44601 28.1179 7.38165C28.1496 7.31728 28.1712 7.23129 28.1827 7.1237C28.1942 7.0161 28.2 6.88064 28.2 6.71732V5.58176H28.4767V6.71732C28.4767 6.95461 28.4608 7.14723 28.4291 7.29518C28.3984 7.44313 28.3436 7.55649 28.2648 7.63527C28.187 7.71405 28.0785 7.76785 27.9392 7.79667C27.7998 7.82645 27.6221 7.84134 27.406 7.84134H26.8843ZM29.8347 7.79523V5.58176H30.1114V7.56466H31.8637V7.79523H29.8347ZM33.5677 7.79523V5.81233H32.4609V5.58176H34.9511V5.81233H33.8443V7.79523H33.5677ZM36.2486 7.79523V5.58176H36.5253V7.79523H36.2486ZM37.9641 7.79523V5.58176H38.2523L40.4758 7.4537H40.4787V5.58176H40.7554V7.79523H40.4672L38.2436 5.90744H38.2407V7.79523H37.9641ZM42.1034 6.71732V6.65967C42.1034 6.46369 42.113 6.29941 42.1322 6.16683C42.1514 6.03329 42.1845 5.92473 42.2316 5.84115C42.2787 5.75757 42.3426 5.69368 42.4233 5.64949C42.5049 5.6053 42.6072 5.57551 42.7302 5.56014C42.8532 5.54381 43.0011 5.53564 43.1741 5.53564H43.7159C43.9426 5.53564 44.1266 5.54429 44.268 5.56158C44.41 5.57888 44.5192 5.61202 44.595 5.66102C44.6719 5.71001 44.7247 5.78158 44.7535 5.87573C44.7824 5.96892 44.7968 6.09142 44.7968 6.2432H44.5198C44.5198 6.12888 44.5099 6.04001 44.4896 5.97661C44.4697 5.91224 44.4316 5.86613 44.3761 5.83827C44.3201 5.80945 44.2391 5.79167 44.1324 5.78495C44.0267 5.77822 43.8877 5.77486 43.7159 5.77486H43.1741C43.0367 5.77486 42.9209 5.77919 42.8268 5.78783C42.7326 5.79552 42.6558 5.81425 42.5962 5.84403C42.5376 5.87285 42.4924 5.91897 42.4607 5.98238C42.43 6.04578 42.4088 6.13224 42.3973 6.24177C42.3858 6.35129 42.38 6.49059 42.38 6.65967V6.71732C42.38 6.88064 42.3858 7.0161 42.3973 7.1237C42.4088 7.23129 42.43 7.31728 42.4607 7.38165C42.4924 7.44601 42.5376 7.49405 42.5962 7.52575C42.6558 7.55745 42.7326 7.57811 42.8268 7.58772C42.9209 7.59732 43.0367 7.60213 43.1741 7.60213H43.8126C43.9711 7.60213 44.0988 7.59588 44.1959 7.58339C44.2927 7.56994 44.3664 7.54208 44.4162 7.49981C44.4673 7.45658 44.5013 7.39125 44.5185 7.30383C44.536 7.21544 44.5446 7.09631 44.5446 6.94644V6.86142H43.4853V6.63085H44.8211V6.94644C44.8211 7.13378 44.8054 7.28605 44.7738 7.40326C44.7419 7.52047 44.688 7.61125 44.6122 7.67562C44.5373 7.73903 44.4344 7.78226 44.304 7.80532C44.1743 7.82933 44.0102 7.84134 43.8126 7.84134H43.1741C42.9579 7.84134 42.7802 7.82645 42.6409 7.79667C42.5016 7.76785 42.3925 7.71405 42.3138 7.63527C42.2359 7.55649 42.1812 7.44313 42.1495 7.29518C42.1187 7.14723 42.1034 6.95461 42.1034 6.71732Z"/>
</mask>
<path d="M9.64258 6.71732V6.65967C9.64258 6.46369 9.65219 6.29941 9.6714 6.16683C9.69061 6.03329 9.72376 5.92473 9.77083 5.84115C9.81791 5.75757 9.88179 5.69368 9.96249 5.64949C10.0442 5.6053 10.1465 5.57551 10.2694 5.56014C10.3924 5.54381 10.5404 5.53564 10.7133 5.53564H11.294C11.4919 5.53564 11.6586 5.54525 11.7941 5.56447C11.9305 5.58272 12.04 5.61971 12.1226 5.67543C12.2062 5.73019 12.2668 5.81137 12.3042 5.91897C12.3417 6.0256 12.3604 6.16731 12.3604 6.34408H12.0837C12.0837 6.20478 12.0712 6.0967 12.0463 6.01984C12.0213 5.94202 11.979 5.88582 11.9195 5.85124C11.8609 5.81665 11.7806 5.79552 11.6788 5.78783C11.577 5.77919 11.4487 5.77486 11.294 5.77486H10.7133C10.5759 5.77486 10.4601 5.77919 10.366 5.78783C10.2718 5.79552 10.195 5.81425 10.1354 5.84403C10.0768 5.87285 10.0317 5.91897 9.99996 5.98238C9.96922 6.04578 9.94808 6.13224 9.93656 6.24177C9.92502 6.35129 9.91926 6.49059 9.91926 6.65967V6.71732C9.91926 6.88064 9.92502 7.0161 9.93656 7.1237C9.94808 7.23129 9.96922 7.31728 9.99996 7.38165C10.0317 7.44601 10.0768 7.49405 10.1354 7.52575C10.195 7.55745 10.2718 7.57811 10.366 7.58772C10.4601 7.59732 10.5759 7.60213 10.7133 7.60213H11.294C11.4487 7.60213 11.577 7.59876 11.6788 7.59204C11.7806 7.58532 11.8609 7.56562 11.9195 7.53296C11.979 7.50029 12.0213 7.44601 12.0463 7.37011C12.0712 7.29326 12.0837 7.18566 12.0837 7.04732H12.3604C12.3604 7.22409 12.3417 7.36531 12.3042 7.47099C12.2668 7.57667 12.2062 7.65641 12.1226 7.71021C12.04 7.76304 11.9305 7.79811 11.7941 7.8154C11.6586 7.8327 11.4919 7.84134 11.294 7.84134H10.7133C10.4971 7.84134 10.3194 7.82645 10.1801 7.79667C10.0408 7.76785 9.93175 7.71405 9.85297 7.63527C9.77516 7.55649 9.7204 7.44313 9.68869 7.29518C9.65795 7.14723 9.64258 6.95461 9.64258 6.71732ZM14.6912 7.84134C14.475 7.84134 14.2973 7.82645 14.158 7.79667C14.0187 7.76785 13.9096 7.71405 13.8309 7.63527C13.7531 7.55649 13.6983 7.44313 13.6666 7.29518C13.6359 7.14723 13.6205 6.95461 13.6205 6.71732V6.65967C13.6205 6.46369 13.6301 6.29941 13.6493 6.16683C13.6685 6.03329 13.7016 5.92473 13.7487 5.84115C13.7958 5.75757 13.8597 5.69368 13.9404 5.64949C14.0221 5.6053 14.1244 5.57551 14.2474 5.56014C14.3703 5.54381 14.5183 5.53564 14.6912 5.53564H15.2719C15.4449 5.53564 15.5928 5.54381 15.7158 5.56014C15.8388 5.57551 15.9406 5.6053 16.0213 5.64949C16.1029 5.69368 16.1673 5.75757 16.2144 5.84115C16.2615 5.92473 16.2946 6.03329 16.3138 6.16683C16.333 6.29941 16.3426 6.46369 16.3426 6.65967V6.71732C16.3426 6.95461 16.3268 7.14723 16.2951 7.29518C16.2644 7.44313 16.2096 7.55649 16.1308 7.63527C16.053 7.71405 15.9444 7.76785 15.8051 7.79667C15.6658 7.82645 15.4881 7.84134 15.2719 7.84134H14.6912ZM14.6912 7.60213H15.2719C15.4093 7.60213 15.5251 7.59732 15.6192 7.58772C15.7134 7.57811 15.7898 7.55745 15.8484 7.52575C15.9079 7.49405 15.9531 7.44601 15.9838 7.38165C16.0155 7.31728 16.0371 7.23129 16.0487 7.1237C16.0602 7.0161 16.066 6.88064 16.066 6.71732V6.65967C16.066 6.49059 16.0602 6.35129 16.0487 6.24177C16.0371 6.13224 16.0155 6.04578 15.9838 5.98238C15.9531 5.91897 15.9079 5.87285 15.8484 5.84403C15.7898 5.81425 15.7134 5.79552 15.6192 5.78783C15.5251 5.77919 15.4093 5.77486 15.2719 5.77486H14.6912C14.5538 5.77486 14.438 5.77919 14.3439 5.78783C14.2498 5.79552 14.1729 5.81425 14.1133 5.84403C14.0547 5.87285 14.0096 5.91897 13.9779 5.98238C13.9471 6.04578 13.926 6.13224 13.9144 6.24177C13.9029 6.35129 13.8972 6.49059 13.8972 6.65967V6.71732C13.8972 6.88064 13.9029 7.0161 13.9144 7.1237C13.926 7.23129 13.9471 7.31728 13.9779 7.38165C14.0096 7.44601 14.0547 7.49405 14.1133 7.52575C14.1729 7.55745 14.2498 7.57811 14.3439 7.58772C14.438 7.59732 14.5538 7.60213 14.6912 7.60213ZM17.6906 7.79523V5.58176H17.9788L20.2024 7.4537H20.2053V5.58176H20.482V7.79523H20.1937L17.9702 5.90744H17.9673V7.79523H17.6906ZM24.2783 7.1554C24.2783 7.0699 24.2716 7.00264 24.2581 6.95365C24.2447 6.90465 24.2144 6.86863 24.1673 6.84557C24.1203 6.82155 24.0472 6.80618 23.9483 6.79945C23.8493 6.79177 23.7139 6.78649 23.5419 6.7836L22.7407 6.77208C22.5428 6.76919 22.3838 6.75719 22.2637 6.73605C22.1436 6.71491 22.0528 6.68177 21.9913 6.63662C21.9298 6.5905 21.8885 6.52902 21.8674 6.45216C21.8472 6.3753 21.8371 6.27923 21.8371 6.16395C21.8371 6.0381 21.8511 5.93434 21.8789 5.85268C21.9078 5.77102 21.9591 5.70713 22.0331 5.66102C22.108 5.6149 22.2137 5.58272 22.3501 5.56447C22.4865 5.54525 22.6628 5.53564 22.879 5.53564H23.4958C23.6918 5.53564 23.8551 5.54189 23.9857 5.55438C24.1164 5.56687 24.2202 5.59569 24.297 5.64084C24.3739 5.686 24.4286 5.75613 24.4613 5.85124C24.4949 5.94635 24.5117 6.077 24.5117 6.2432H24.2351C24.2351 6.11447 24.2226 6.01744 24.1976 5.95211C24.1736 5.88582 24.1332 5.84067 24.0765 5.81665C24.0208 5.79263 23.9454 5.77967 23.8503 5.77774C23.7552 5.77582 23.637 5.77486 23.4958 5.77486H22.8934C22.7215 5.77486 22.5836 5.77822 22.4798 5.78495C22.377 5.79167 22.2992 5.80704 22.2464 5.83106C22.1935 5.85508 22.158 5.89351 22.1397 5.94635C22.1224 5.99919 22.1138 6.07172 22.1138 6.16395C22.1138 6.24177 22.12 6.30421 22.1325 6.35129C22.145 6.39836 22.1729 6.43439 22.2161 6.45937C22.2603 6.48338 22.328 6.5002 22.4193 6.5098C22.5106 6.51845 22.635 6.52373 22.7926 6.52565L23.6514 6.53718C23.8532 6.54006 24.0141 6.55207 24.1342 6.57321C24.2552 6.59338 24.3455 6.62653 24.4051 6.67264C24.4656 6.71876 24.5055 6.7812 24.5247 6.85998C24.5449 6.9378 24.555 7.03627 24.555 7.1554C24.555 7.28509 24.5425 7.39413 24.5175 7.48252C24.4935 7.56994 24.4464 7.64008 24.3763 7.69291C24.3062 7.74575 24.2048 7.7837 24.0722 7.80676C23.9397 7.82981 23.7653 7.84134 23.5491 7.84134H22.8747C22.6777 7.84134 22.5125 7.8327 22.379 7.8154C22.2454 7.79811 22.1388 7.76353 22.0591 7.71165C21.9803 7.65881 21.9236 7.58051 21.889 7.47676C21.8544 7.373 21.8371 7.23466 21.8371 7.06173H22.1138C22.1138 7.19719 22.1248 7.30191 22.1469 7.37588C22.169 7.44985 22.2075 7.50317 22.2623 7.53584C22.3179 7.56754 22.3953 7.58676 22.4942 7.59348C22.5942 7.59924 22.721 7.60213 22.8747 7.60213H23.5347C23.7067 7.60213 23.8426 7.59684 23.9425 7.58628C24.0424 7.57475 24.1164 7.55361 24.1644 7.52287C24.2125 7.49117 24.2432 7.44601 24.2567 7.38741C24.2711 7.32881 24.2783 7.25147 24.2783 7.1554ZM26.8843 7.84134C26.6682 7.84134 26.4904 7.82645 26.3511 7.79667C26.2118 7.76785 26.1028 7.71405 26.024 7.63527C25.9462 7.55649 25.8914 7.44313 25.8597 7.29518C25.829 7.14723 25.8136 6.95461 25.8136 6.71732V5.58176H26.0903V6.71732C26.0903 6.88064 26.0961 7.0161 26.1076 7.1237C26.1191 7.23129 26.1407 7.31728 26.1724 7.38165C26.2041 7.44601 26.2493 7.49405 26.3079 7.52575C26.3674 7.55745 26.4443 7.57811 26.5384 7.58772C26.6326 7.59732 26.7479 7.60213 26.8843 7.60213H27.406C27.5434 7.60213 27.6586 7.59732 27.7518 7.58772C27.846 7.57811 27.9224 7.55745 27.9809 7.52575C28.0405 7.49405 28.0861 7.44601 28.1179 7.38165C28.1496 7.31728 28.1712 7.23129 28.1827 7.1237C28.1942 7.0161 28.2 6.88064 28.2 6.71732V5.58176H28.4767V6.71732C28.4767 6.95461 28.4608 7.14723 28.4291 7.29518C28.3984 7.44313 28.3436 7.55649 28.2648 7.63527C28.187 7.71405 28.0785 7.76785 27.9392 7.79667C27.7998 7.82645 27.6221 7.84134 27.406 7.84134H26.8843ZM29.8347 7.79523V5.58176H30.1114V7.56466H31.8637V7.79523H29.8347ZM33.5677 7.79523V5.81233H32.4609V5.58176H34.9511V5.81233H33.8443V7.79523H33.5677ZM36.2486 7.79523V5.58176H36.5253V7.79523H36.2486ZM37.9641 7.79523V5.58176H38.2523L40.4758 7.4537H40.4787V5.58176H40.7554V7.79523H40.4672L38.2436 5.90744H38.2407V7.79523H37.9641ZM42.1034 6.71732V6.65967C42.1034 6.46369 42.113 6.29941 42.1322 6.16683C42.1514 6.03329 42.1845 5.92473 42.2316 5.84115C42.2787 5.75757 42.3426 5.69368 42.4233 5.64949C42.5049 5.6053 42.6072 5.57551 42.7302 5.56014C42.8532 5.54381 43.0011 5.53564 43.1741 5.53564H43.7159C43.9426 5.53564 44.1266 5.54429 44.268 5.56158C44.41 5.57888 44.5192 5.61202 44.595 5.66102C44.6719 5.71001 44.7247 5.78158 44.7535 5.87573C44.7824 5.96892 44.7968 6.09142 44.7968 6.2432H44.5198C44.5198 6.12888 44.5099 6.04001 44.4896 5.97661C44.4697 5.91224 44.4316 5.86613 44.3761 5.83827C44.3201 5.80945 44.2391 5.79167 44.1324 5.78495C44.0267 5.77822 43.8877 5.77486 43.7159 5.77486H43.1741C43.0367 5.77486 42.9209 5.77919 42.8268 5.78783C42.7326 5.79552 42.6558 5.81425 42.5962 5.84403C42.5376 5.87285 42.4924 5.91897 42.4607 5.98238C42.43 6.04578 42.4088 6.13224 42.3973 6.24177C42.3858 6.35129 42.38 6.49059 42.38 6.65967V6.71732C42.38 6.88064 42.3858 7.0161 42.3973 7.1237C42.4088 7.23129 42.43 7.31728 42.4607 7.38165C42.4924 7.44601 42.5376 7.49405 42.5962 7.52575C42.6558 7.55745 42.7326 7.57811 42.8268 7.58772C42.9209 7.59732 43.0367 7.60213 43.1741 7.60213H43.8126C43.9711 7.60213 44.0988 7.59588 44.1959 7.58339C44.2927 7.56994 44.3664 7.54208 44.4162 7.49981C44.4673 7.45658 44.5013 7.39125 44.5185 7.30383C44.536 7.21544 44.5446 7.09631 44.5446 6.94644V6.86142H43.4853V6.63085H44.8211V6.94644C44.8211 7.13378 44.8054 7.28605 44.7738 7.40326C44.7419 7.52047 44.688 7.61125 44.6122 7.67562C44.5373 7.73903 44.4344 7.78226 44.304 7.80532C44.1743 7.82933 44.0102 7.84134 43.8126 7.84134H43.1741C42.9579 7.84134 42.7802 7.82645 42.6409 7.79667C42.5016 7.76785 42.3925 7.71405 42.3138 7.63527C42.2359 7.55649 42.1812 7.44313 42.1495 7.29518C42.1187 7.14723 42.1034 6.95461 42.1034 6.71732Z" fill="white"/>
<path d="M9.64258 6.71732V6.65967C9.64258 6.46369 9.65219 6.29941 9.6714 6.16683C9.69061 6.03329 9.72376 5.92473 9.77083 5.84115C9.81791 5.75757 9.88179 5.69368 9.96249 5.64949C10.0442 5.6053 10.1465 5.57551 10.2694 5.56014C10.3924 5.54381 10.5404 5.53564 10.7133 5.53564H11.294C11.4919 5.53564 11.6586 5.54525 11.7941 5.56447C11.9305 5.58272 12.04 5.61971 12.1226 5.67543C12.2062 5.73019 12.2668 5.81137 12.3042 5.91897C12.3417 6.0256 12.3604 6.16731 12.3604 6.34408H12.0837C12.0837 6.20478 12.0712 6.0967 12.0463 6.01984C12.0213 5.94202 11.979 5.88582 11.9195 5.85124C11.8609 5.81665 11.7806 5.79552 11.6788 5.78783C11.577 5.77919 11.4487 5.77486 11.294 5.77486H10.7133C10.5759 5.77486 10.4601 5.77919 10.366 5.78783C10.2718 5.79552 10.195 5.81425 10.1354 5.84403C10.0768 5.87285 10.0317 5.91897 9.99996 5.98238C9.96922 6.04578 9.94808 6.13224 9.93656 6.24177C9.92502 6.35129 9.91926 6.49059 9.91926 6.65967V6.71732C9.91926 6.88064 9.92502 7.0161 9.93656 7.1237C9.94808 7.23129 9.96922 7.31728 9.99996 7.38165C10.0317 7.44601 10.0768 7.49405 10.1354 7.52575C10.195 7.55745 10.2718 7.57811 10.366 7.58772C10.4601 7.59732 10.5759 7.60213 10.7133 7.60213H11.294C11.4487 7.60213 11.577 7.59876 11.6788 7.59204C11.7806 7.58532 11.8609 7.56562 11.9195 7.53296C11.979 7.50029 12.0213 7.44601 12.0463 7.37011C12.0712 7.29326 12.0837 7.18566 12.0837 7.04732H12.3604C12.3604 7.22409 12.3417 7.36531 12.3042 7.47099C12.2668 7.57667 12.2062 7.65641 12.1226 7.71021C12.04 7.76304 11.9305 7.79811 11.7941 7.8154C11.6586 7.8327 11.4919 7.84134 11.294 7.84134H10.7133C10.4971 7.84134 10.3194 7.82645 10.1801 7.79667C10.0408 7.76785 9.93175 7.71405 9.85297 7.63527C9.77516 7.55649 9.7204 7.44313 9.68869 7.29518C9.65795 7.14723 9.64258 6.95461 9.64258 6.71732ZM14.6912 7.84134C14.475 7.84134 14.2973 7.82645 14.158 7.79667C14.0187 7.76785 13.9096 7.71405 13.8309 7.63527C13.7531 7.55649 13.6983 7.44313 13.6666 7.29518C13.6359 7.14723 13.6205 6.95461 13.6205 6.71732V6.65967C13.6205 6.46369 13.6301 6.29941 13.6493 6.16683C13.6685 6.03329 13.7016 5.92473 13.7487 5.84115C13.7958 5.75757 13.8597 5.69368 13.9404 5.64949C14.0221 5.6053 14.1244 5.57551 14.2474 5.56014C14.3703 5.54381 14.5183 5.53564 14.6912 5.53564H15.2719C15.4449 5.53564 15.5928 5.54381 15.7158 5.56014C15.8388 5.57551 15.9406 5.6053 16.0213 5.64949C16.1029 5.69368 16.1673 5.75757 16.2144 5.84115C16.2615 5.92473 16.2946 6.03329 16.3138 6.16683C16.333 6.29941 16.3426 6.46369 16.3426 6.65967V6.71732C16.3426 6.95461 16.3268 7.14723 16.2951 7.29518C16.2644 7.44313 16.2096 7.55649 16.1308 7.63527C16.053 7.71405 15.9444 7.76785 15.8051 7.79667C15.6658 7.82645 15.4881 7.84134 15.2719 7.84134H14.6912ZM14.6912 7.60213H15.2719C15.4093 7.60213 15.5251 7.59732 15.6192 7.58772C15.7134 7.57811 15.7898 7.55745 15.8484 7.52575C15.9079 7.49405 15.9531 7.44601 15.9838 7.38165C16.0155 7.31728 16.0371 7.23129 16.0487 7.1237C16.0602 7.0161 16.066 6.88064 16.066 6.71732V6.65967C16.066 6.49059 16.0602 6.35129 16.0487 6.24177C16.0371 6.13224 16.0155 6.04578 15.9838 5.98238C15.9531 5.91897 15.9079 5.87285 15.8484 5.84403C15.7898 5.81425 15.7134 5.79552 15.6192 5.78783C15.5251 5.77919 15.4093 5.77486 15.2719 5.77486H14.6912C14.5538 5.77486 14.438 5.77919 14.3439 5.78783C14.2498 5.79552 14.1729 5.81425 14.1133 5.84403C14.0547 5.87285 14.0096 5.91897 13.9779 5.98238C13.9471 6.04578 13.926 6.13224 13.9144 6.24177C13.9029 6.35129 13.8972 6.49059 13.8972 6.65967V6.71732C13.8972 6.88064 13.9029 7.0161 13.9144 7.1237C13.926 7.23129 13.9471 7.31728 13.9779 7.38165C14.0096 7.44601 14.0547 7.49405 14.1133 7.52575C14.1729 7.55745 14.2498 7.57811 14.3439 7.58772C14.438 7.59732 14.5538 7.60213 14.6912 7.60213ZM17.6906 7.79523V5.58176H17.9788L20.2024 7.4537H20.2053V5.58176H20.482V7.79523H20.1937L17.9702 5.90744H17.9673V7.79523H17.6906ZM24.2783 7.1554C24.2783 7.0699 24.2716 7.00264 24.2581 6.95365C24.2447 6.90465 24.2144 6.86863 24.1673 6.84557C24.1203 6.82155 24.0472 6.80618 23.9483 6.79945C23.8493 6.79177 23.7139 6.78649 23.5419 6.7836L22.7407 6.77208C22.5428 6.76919 22.3838 6.75719 22.2637 6.73605C22.1436 6.71491 22.0528 6.68177 21.9913 6.63662C21.9298 6.5905 21.8885 6.52902 21.8674 6.45216C21.8472 6.3753 21.8371 6.27923 21.8371 6.16395C21.8371 6.0381 21.8511 5.93434 21.8789 5.85268C21.9078 5.77102 21.9591 5.70713 22.0331 5.66102C22.108 5.6149 22.2137 5.58272 22.3501 5.56447C22.4865 5.54525 22.6628 5.53564 22.879 5.53564H23.4958C23.6918 5.53564 23.8551 5.54189 23.9857 5.55438C24.1164 5.56687 24.2202 5.59569 24.297 5.64084C24.3739 5.686 24.4286 5.75613 24.4613 5.85124C24.4949 5.94635 24.5117 6.077 24.5117 6.2432H24.2351C24.2351 6.11447 24.2226 6.01744 24.1976 5.95211C24.1736 5.88582 24.1332 5.84067 24.0765 5.81665C24.0208 5.79263 23.9454 5.77967 23.8503 5.77774C23.7552 5.77582 23.637 5.77486 23.4958 5.77486H22.8934C22.7215 5.77486 22.5836 5.77822 22.4798 5.78495C22.377 5.79167 22.2992 5.80704 22.2464 5.83106C22.1935 5.85508 22.158 5.89351 22.1397 5.94635C22.1224 5.99919 22.1138 6.07172 22.1138 6.16395C22.1138 6.24177 22.12 6.30421 22.1325 6.35129C22.145 6.39836 22.1729 6.43439 22.2161 6.45937C22.2603 6.48338 22.328 6.5002 22.4193 6.5098C22.5106 6.51845 22.635 6.52373 22.7926 6.52565L23.6514 6.53718C23.8532 6.54006 24.0141 6.55207 24.1342 6.57321C24.2552 6.59338 24.3455 6.62653 24.4051 6.67264C24.4656 6.71876 24.5055 6.7812 24.5247 6.85998C24.5449 6.9378 24.555 7.03627 24.555 7.1554C24.555 7.28509 24.5425 7.39413 24.5175 7.48252C24.4935 7.56994 24.4464 7.64008 24.3763 7.69291C24.3062 7.74575 24.2048 7.7837 24.0722 7.80676C23.9397 7.82981 23.7653 7.84134 23.5491 7.84134H22.8747C22.6777 7.84134 22.5125 7.8327 22.379 7.8154C22.2454 7.79811 22.1388 7.76353 22.0591 7.71165C21.9803 7.65881 21.9236 7.58051 21.889 7.47676C21.8544 7.373 21.8371 7.23466 21.8371 7.06173H22.1138C22.1138 7.19719 22.1248 7.30191 22.1469 7.37588C22.169 7.44985 22.2075 7.50317 22.2623 7.53584C22.3179 7.56754 22.3953 7.58676 22.4942 7.59348C22.5942 7.59924 22.721 7.60213 22.8747 7.60213H23.5347C23.7067 7.60213 23.8426 7.59684 23.9425 7.58628C24.0424 7.57475 24.1164 7.55361 24.1644 7.52287C24.2125 7.49117 24.2432 7.44601 24.2567 7.38741C24.2711 7.32881 24.2783 7.25147 24.2783 7.1554ZM26.8843 7.84134C26.6682 7.84134 26.4904 7.82645 26.3511 7.79667C26.2118 7.76785 26.1028 7.71405 26.024 7.63527C25.9462 7.55649 25.8914 7.44313 25.8597 7.29518C25.829 7.14723 25.8136 6.95461 25.8136 6.71732V5.58176H26.0903V6.71732C26.0903 6.88064 26.0961 7.0161 26.1076 7.1237C26.1191 7.23129 26.1407 7.31728 26.1724 7.38165C26.2041 7.44601 26.2493 7.49405 26.3079 7.52575C26.3674 7.55745 26.4443 7.57811 26.5384 7.58772C26.6326 7.59732 26.7479 7.60213 26.8843 7.60213H27.406C27.5434 7.60213 27.6586 7.59732 27.7518 7.58772C27.846 7.57811 27.9224 7.55745 27.9809 7.52575C28.0405 7.49405 28.0861 7.44601 28.1179 7.38165C28.1496 7.31728 28.1712 7.23129 28.1827 7.1237C28.1942 7.0161 28.2 6.88064 28.2 6.71732V5.58176H28.4767V6.71732C28.4767 6.95461 28.4608 7.14723 28.4291 7.29518C28.3984 7.44313 28.3436 7.55649 28.2648 7.63527C28.187 7.71405 28.0785 7.76785 27.9392 7.79667C27.7998 7.82645 27.6221 7.84134 27.406 7.84134H26.8843ZM29.8347 7.79523V5.58176H30.1114V7.56466H31.8637V7.79523H29.8347ZM33.5677 7.79523V5.81233H32.4609V5.58176H34.9511V5.81233H33.8443V7.79523H33.5677ZM36.2486 7.79523V5.58176H36.5253V7.79523H36.2486ZM37.9641 7.79523V5.58176H38.2523L40.4758 7.4537H40.4787V5.58176H40.7554V7.79523H40.4672L38.2436 5.90744H38.2407V7.79523H37.9641ZM42.1034 6.71732V6.65967C42.1034 6.46369 42.113 6.29941 42.1322 6.16683C42.1514 6.03329 42.1845 5.92473 42.2316 5.84115C42.2787 5.75757 42.3426 5.69368 42.4233 5.64949C42.5049 5.6053 42.6072 5.57551 42.7302 5.56014C42.8532 5.54381 43.0011 5.53564 43.1741 5.53564H43.7159C43.9426 5.53564 44.1266 5.54429 44.268 5.56158C44.41 5.57888 44.5192 5.61202 44.595 5.66102C44.6719 5.71001 44.7247 5.78158 44.7535 5.87573C44.7824 5.96892 44.7968 6.09142 44.7968 6.2432H44.5198C44.5198 6.12888 44.5099 6.04001 44.4896 5.97661C44.4697 5.91224 44.4316 5.86613 44.3761 5.83827C44.3201 5.80945 44.2391 5.79167 44.1324 5.78495C44.0267 5.77822 43.8877 5.77486 43.7159 5.77486H43.1741C43.0367 5.77486 42.9209 5.77919 42.8268 5.78783C42.7326 5.79552 42.6558 5.81425 42.5962 5.84403C42.5376 5.87285 42.4924 5.91897 42.4607 5.98238C42.43 6.04578 42.4088 6.13224 42.3973 6.24177C42.3858 6.35129 42.38 6.49059 42.38 6.65967V6.71732C42.38 6.88064 42.3858 7.0161 42.3973 7.1237C42.4088 7.23129 42.43 7.31728 42.4607 7.38165C42.4924 7.44601 42.5376 7.49405 42.5962 7.52575C42.6558 7.55745 42.7326 7.57811 42.8268 7.58772C42.9209 7.59732 43.0367 7.60213 43.1741 7.60213H43.8126C43.9711 7.60213 44.0988 7.59588 44.1959 7.58339C44.2927 7.56994 44.3664 7.54208 44.4162 7.49981C44.4673 7.45658 44.5013 7.39125 44.5185 7.30383C44.536 7.21544 44.5446 7.09631 44.5446 6.94644V6.86142H43.4853V6.63085H44.8211V6.94644C44.8211 7.13378 44.8054 7.28605 44.7738 7.40326C44.7419 7.52047 44.688 7.61125 44.6122 7.67562C44.5373 7.73903 44.4344 7.78226 44.304 7.80532C44.1743 7.82933 44.0102 7.84134 43.8126 7.84134H43.1741C42.9579 7.84134 42.7802 7.82645 42.6409 7.79667C42.5016 7.76785 42.3925 7.71405 42.3138 7.63527C42.2359 7.55649 42.1812 7.44313 42.1495 7.29518C42.1187 7.14723 42.1034 6.95461 42.1034 6.71732Z" stroke="white" stroke-width="0.274539" mask="url(#path-7-outside-1_1035_30)"/>
<path fill-rule="evenodd" clip-rule="evenodd" d="M89.3117 10.8882C89.3117 10.8882 100.697 10.3668 100.697 22.6432C100.697 34.9197 89.3117 34.9029 89.3117 34.9029H81.0713V10.8882H89.3117ZM89.3117 15.597H86.604V30.2782H89.3117C89.9326 30.2525 94.9622 29.8388 94.9622 23.2487C94.9622 16.2192 89.3117 15.597 89.3117 15.597Z" fill="white"/>
</svg>
